<svg width="0" height="0" class="hidden">
  <symbol xmlns="http://www.w3.org/2000/svg" viewBox="0 0 24 24" id="angular">
    <rect width="24" height="24" fill="none"></rect>
    <path d="M12,2.5l8.84,3.15L19.5,17.35,12,21.5,4.5,17.35,3.16,5.65,12,2.5m0,2.1L6.47,17H8.53l1.11-2.78h4.7L15.45,17H17.5L12,4.6m1.62,7.9H10.39L12,8.63Z" fill="#fff"></path>
  </symbol>
  <symbol fill="#fff" version="1.1" xmlns="http://www.w3.org/2000/svg" xmlns:xlink="http://www.w3.org/1999/xlink" enable-background="new 0 0 512 512" xml:space="preserve" viewBox="0 0 512 512" id="bash">
    <g id="5151e0c8492e5103c096af88a51f9b27">
      <path display="inline" d="M77.554,296.055l101.189-39.863v-0.611L77.554,215.413v-44.464l154.539,68.379v32.807L77.554,340.514
		V296.055z M434.446,343.887v39.863H251.7v-39.863H434.446z M468.917,0.5H43.083C19.662,0.5,0.5,19.663,0.5,43.083v425.833
		c0,23.421,19.162,42.583,42.583,42.583h425.834c23.421,0,42.583-19.162,42.583-42.583V43.083C511.5,19.663,492.338,0.5,468.917,0.5
		z M468.917,468.917H43.083V106.958h425.834V468.917z"></path>
    </g>
  </symbol>
  <symbol fill="none" xmlns="http://www.w3.org/2000/svg" viewBox="0 0 24 24" id="bootstrap-fill">
    <path fill-rule="evenodd" clip-rule="evenodd" d="M4.98488 2C3.61546 2 2.60217 3.19858 2.64753 4.49844C2.69105 5.74725 2.63451 7.36461 2.22732 8.68359C1.81892 10.0064 1.1282 10.8444 0 10.952V12.1666C1.1282 12.2742 1.81892 13.1122 2.22732 14.4351C2.63451 15.754 2.69105 17.3714 2.64753 18.6202C2.60217 19.9199 3.61546 21.1186 4.98508 21.1186H19.0169C20.3864 21.1186 21.3995 19.9201 21.3541 18.6202C21.3106 17.3714 21.3671 15.754 21.7743 14.4351C22.1829 13.1122 22.8718 12.2742 24 12.1666V10.952C22.8718 10.8444 22.1829 10.0064 21.7743 8.68359C21.3671 7.36481 21.3106 5.74725 21.3541 4.49844C21.3995 3.19878 20.3864 2 19.0169 2H4.98468H4.98488ZM16.2712 13.7687C16.2712 15.5586 14.9361 16.6441 12.7206 16.6441H8.94915C8.84127 16.6441 8.7378 16.6012 8.66152 16.5249C8.58523 16.4486 8.54237 16.3452 8.54237 16.2373V6.88136C8.54237 6.77347 8.58523 6.67001 8.66152 6.59372C8.7378 6.51743 8.84127 6.47458 8.94915 6.47458H12.6991C14.5464 6.47458 15.7588 7.47525 15.7588 9.01166C15.7588 10.09 14.9433 11.0555 13.9041 11.2245V11.2809C15.3187 11.4361 16.2712 12.4156 16.2712 13.7687ZM12.3094 7.76407H10.1589V10.8015H11.9701C13.3702 10.8015 14.1423 10.2377 14.1423 9.2299C14.1423 8.28556 13.4784 7.76407 12.3094 7.76407ZM10.1589 12.0068V15.3542H12.3885C13.8462 15.3542 14.6184 14.7692 14.6184 13.6699C14.6184 12.5704 13.8246 12.0066 12.2947 12.0066H10.1589V12.0068Z" fill="#fff"></path>
  </symbol>
  <symbol fill="#fff" version="1.1" xmlns="http://www.w3.org/2000/svg" viewBox="0 0 32 32" id="bulma">
    <path d="M15.062 1.004l-7.498 7.498-1.874 13.122 9.372 9.372 11.248-7.498-7.498-7.498 5.624-5.624-9.374-9.372z"></path>
  </symbol>
  <symbol fill="#fff" version="1.1" xmlns="http://www.w3.org/2000/svg" xmlns:xlink="http://www.w3.org/1999/xlink" enable-background="new 0 0 512 512" xml:space="preserve" viewBox="0 0 512 512" id="css3">
    <g id="c133de6af664cd4f011a55de6b001b19">
      <path display="inline" d="M483.111,0.501l-42.59,461.314l-184.524,49.684L71.47,461.815L28.889,0.501H483.111z M397.29,94.302
		H255.831H111.866l6.885,55.708h137.08h7.7l-7.7,3.205l-132.07,55.006l4.38,54.453l127.69,0.414l68.438,0.217l-4.381,72.606
		l-64.058,18.035v-0.057l-0.525,0.146l-61.864-15.617l-3.754-45.07h-0.205H132.1h-0.202l7.511,87.007l116.423,34.429v-0.062
		l0.21,0.062l115.799-33.802l15.021-172.761h-131.03h-0.323l0.323-0.14l135.83-58.071L397.29,94.302z"></path>
    </g>
  </symbol>
  <symbol fill="none" xmlns="http://www.w3.org/2000/svg" viewBox="0 0 16 16" id="database">
    <path d="M13.1371 6.91018C13.4184 6.7695 13.7123 6.59981 14 6.40001V8C14 9.65685 11.3137 11 8 11C4.68629 11 2 9.65685 2 8V6.40001C2.28772 6.59981 2.58158 6.7695 2.86293 6.91018C4.28096 7.61919 6.09998 8 8 8C9.90002 8 11.719 7.61919 13.1371 6.91018Z" fill="#fff"></path>
    <path d="M2 11.4V13C2 14.6569 4.68629 16 8 16C11.3137 16 14 14.6569 14 13V11.4C13.7123 11.5998 13.4184 11.7695 13.1371 11.9102C11.719 12.6192 9.90002 13 8 13C6.09998 13 4.28096 12.6192 2.86293 11.9102C2.58158 11.7695 2.28772 11.5998 2 11.4Z" fill="#fff"></path>
    <path d="M8 0C11.3137 0 14 1.34315 14 3C14 4.65685 11.3137 6 8 6C4.68629 6 2 4.65685 2 3C2 1.34315 4.68629 0 8 0Z" fill="#fff"></path>
  </symbol>
  <symbol fill="#ffffff" version="1.1" xmlns="http://www.w3.org/2000/svg" viewBox="0 0 32 32" id="docker">
    <path d="M30.679 13.367c-0.613-0.404-1.366-0.645-2.175-0.645-0.093 0-0.185 0.003-0.276 0.009l0.012-0.001c-0.446 0.001-0.882 0.041-1.306 0.115l0.046-0.007c-0.235-1.357-1.025-2.495-2.122-3.191l-0.019-0.011-0.429-0.248-0.282 0.408c-0.336 0.512-0.599 1.108-0.756 1.745l-0.008 0.039c-0.089 0.324-0.14 0.696-0.14 1.080 0 0.831 0.24 1.605 0.654 2.258l-0.010-0.017c-0.637 0.299-1.381 0.488-2.164 0.524l-0.013 0h-19.729c-0.516 0.001-0.934 0.418-0.936 0.933v0c-0.001 0.056-0.001 0.123-0.001 0.19 0 1.751 0.317 3.428 0.897 4.977l-0.032-0.098c0.558 1.633 1.612 2.975 2.98 3.881l0.028 0.017c1.744 0.903 3.808 1.432 5.995 1.432 0.207 0 0.412-0.005 0.617-0.014l-0.029 0.001c0.018 0 0.039 0 0.060 0 1.272 0 2.515-0.121 3.72-0.352l-0.123 0.020c1.795-0.336 3.395-0.939 4.845-1.773l-0.074 0.039c1.257-0.735 2.331-1.621 3.245-2.652l0.012-0.014c1.325-1.56 2.403-3.381 3.145-5.365l0.041-0.125h0.276c0.055 0.002 0.119 0.004 0.183 0.004 1.226 0 2.34-0.481 3.163-1.265l-0.002 0.002c0.377-0.358 0.676-0.793 0.873-1.281l0.009-0.024 0.122-0.359zM3.79 14.849h2.646c0.127-0.001 0.23-0.104 0.23-0.231 0 0 0 0 0 0v0-2.355c0-0 0-0.001 0-0.001 0-0.127-0.103-0.23-0.23-0.231h-2.646c-0.127 0.001-0.23 0.104-0.23 0.231v0 2.356c0 0 0 0 0 0.001 0 0.127 0.103 0.23 0.23 0.23 0 0 0 0 0.001 0h-0zM7.434 14.849h2.644c0.127 0 0.231-0.103 0.231-0.231 0 0 0 0 0-0v0-2.355c0-0 0-0.001 0-0.001 0-0.127-0.103-0.23-0.23-0.231h-2.646c-0 0-0 0-0 0-0.128 0-0.232 0.104-0.232 0.232 0 0 0 0 0 0v0 2.355c0.001 0.128 0.104 0.231 0.232 0.231v0zM11.132 14.849h2.646c0.127-0.001 0.23-0.104 0.23-0.231 0 0 0 0 0 0v0-2.355c0-0 0-0.001 0-0.001 0-0.127-0.103-0.23-0.23-0.231h-2.646c-0.127 0.001-0.23 0.104-0.23 0.231v0 2.356c0 0.127 0.103 0.231 0.231 0.231v0zM14.788 14.849h2.643c0 0 0 0 0 0 0.128 0 0.231-0.103 0.232-0.231v-2.355c0-0 0-0 0-0 0-0.128-0.104-0.232-0.232-0.232-0 0-0 0-0 0h-2.643c-0.127 0-0.231 0.103-0.231 0.231v0 2.356c0 0 0 0 0 0.001 0 0.127 0.103 0.23 0.23 0.23 0 0 0 0 0.001 0h-0zM7.434 11.461h2.644c0.128-0.001 0.231-0.104 0.231-0.232 0 0 0 0 0 0v0-2.355c0 0 0 0 0-0 0-0.127-0.103-0.231-0.231-0.231h-2.644c-0.128 0-0.231 0.103-0.232 0.231v2.355c0.001 0.128 0.104 0.231 0.232 0.232h0zM11.132 11.461h2.646c0.127-0.001 0.23-0.105 0.23-0.232v0-2.355c0 0 0 0 0-0 0-0.127-0.103-0.231-0.231-0.231h-2.643c-0.127 0-0.231 0.103-0.231 0.231 0 0 0 0 0 0v0 2.355c0.001 0.128 0.103 0.231 0.231 0.232h0zM14.788 11.461h2.643c0.128-0.001 0.231-0.104 0.232-0.232v-2.355c-0.001-0.128-0.104-0.231-0.232-0.231h-2.643c-0.127 0-0.231 0.103-0.231 0.231 0 0 0 0 0 0v0 2.355c0 0.128 0.103 0.231 0.231 0.232h0zM14.788 8.073h2.643c0 0 0 0 0 0 0.128 0 0.232-0.104 0.232-0.232 0-0 0-0 0-0v0-2.356c-0.001-0.128-0.104-0.231-0.232-0.231 0 0-0 0-0 0h-2.643c-0.127 0-0.231 0.103-0.231 0.231v0 2.356c0 0 0 0 0 0.001 0 0.127 0.103 0.23 0.23 0.23 0 0 0 0 0.001 0h-0zM18.475 14.849h2.644c0 0 0 0 0 0 0.128 0 0.231-0.103 0.232-0.231v-2.355c0-0 0-0 0-0 0-0.128-0.104-0.232-0.232-0.232-0 0-0 0-0 0h-2.644c0 0 0 0-0 0-0.128 0-0.231 0.103-0.231 0.231v2.356c0 0.127 0.103 0.231 0.231 0.231v0z"></path>
  </symbol>
  <symbol version="1.1" xmlns="http://www.w3.org/2000/svg" xmlns:xlink="http://www.w3.org/1999/xlink" viewBox="0 0 32 32" id="eclipse">
    <path fill="#ffffff" d="M6.568 16.58c-0.143-5.283 3.811-9.945 8.951-10.787-4.040 0.066-7.256 1.719-9.282 5.253-2.139 3.729-1.992 7.535 0.393 11.112 2.097 3.144 5.174 4.596 8.931 4.621-5.289-0.905-8.865-5.454-8.993-10.198zM7.627 13.092c-0.11 0.292-0.096 0.297 0.222 0.297 6.225 0 12.451 0 18.676 0 0.113 0 0.226 0 0.337 0 0.003-0.030 0.010-0.047 0.006-0.062-0.019-0.071-0.040-0.142-0.063-0.212-0.756-2.252-2.175-3.997-4.134-5.3-2.223-1.479-4.697-1.903-7.285-1.418-3.856 0.722-6.385 3.059-7.759 6.695zM7.437 14.524c-0.13-0.020-0.165 0.044-0.181 0.161-0.039 0.293-0.073 0.586-0.093 0.882-0.008 0.121 0.015 0.155 0.138 0.154 1.028-0.007 2.055-0.008 3.083-0.011 0.057 0.003 0.115 0.008 0.172 0.008 4.443 0 8.886 0 13.329 0 0.057 0 0.115-0.005 0.172-0.008 1.019 0.003 2.039 0.002 3.058 0.012 0.148 0.001 0.162-0.062 0.15-0.174-0.030-0.269-0.076-0.538-0.086-0.808-0.007-0.19-0.081-0.219-0.255-0.219-6.439 0.005-12.877 0.004-19.316 0.004-0.058 0-0.116 0.007-0.173-0.001zM27.117 16.851c-1.020 0.006-2.039 0.008-3.059 0.010-0.057-0.003-0.115-0.008-0.172-0.008-4.443-0-8.887-0-13.33 0-0.057 0-0.115 0.005-0.172 0.008-1.026-0.003-2.052-0.004-3.078-0.010-0.114-0.001-0.153 0.019-0.143 0.148 0.022 0.303 0.051 0.604 0.098 0.905 0.014 0.090 0.030 0.145 0.145 0.145 1.059-0.008 2.117-0.010 3.176-0.014 0.065 0.004 0.131 0.011 0.196 0.011 4.296 0 8.591 0 12.887 0 0.065 0 0.131-0.007 0.196-0.011 1.052 0.004 2.105 0.007 3.157 0.012 0.083 0 0.14-0.013 0.149-0.116 0.029-0.311 0.063-0.621 0.1-0.931 0.015-0.123-0.036-0.15-0.15-0.149zM10.484 17.593c-0.001-0.002-0.001-0.004-0.002-0.006 0.001 0.001 0.002 0.002 0.003 0.002-0 0.001-0.001 0.002-0.001 0.004zM26.644 19.183c-6.282-0.005-12.564-0.005-18.846-0.003-0.075 0-0.164-0.044-0.225 0.041v0c-0.019 0.104 0.037 0.192 0.067 0.284 1.333 3.989 5.716 7.889 11.823 6.6 2.469-0.521 4.376-1.925 5.892-3.897 0.665-0.866 1.175-1.818 1.474-2.874 0.114-0.261-0.111-0.151-0.185-0.151z"></path>
  </symbol>
  <symbol fill="none" xmlns="http://www.w3.org/2000/svg" viewBox="0 0 24 24" id="git">
    <path fill-rule="evenodd" clip-rule="evenodd" d="M13.4142 3.82843C12.6332 3.04738 11.3668 3.04738 10.5858 3.82843L9.91421 4.5L11.482 6.06774C11.6472 6.02356 11.8208 6 12 6C13.1046 6 14 6.89543 14 8C14 8.17916 13.9764 8.35282 13.9323 8.51804L15.982 10.5677C16.1472 10.5236 16.3208 10.5 16.5 10.5C17.6046 10.5 18.5 11.3954 18.5 12.5C18.5 13.6046 17.6046 14.5 16.5 14.5C15.3954 14.5 14.5 13.6046 14.5 12.5C14.5 12.3208 14.5236 12.1472 14.5677 11.982L13 10.4142V15.2676C13.5978 15.6134 14 16.2597 14 17C14 18.1046 13.1046 19 12 19C10.8954 19 10 18.1046 10 17C10 16.2597 10.4022 15.6134 11 15.2676V9.73244C10.4022 9.38663 10 8.74028 10 8C10 7.82084 10.0236 7.64718 10.0677 7.48196L8.5 5.91421L3.82843 10.5858C3.04738 11.3668 3.04738 12.6332 3.82843 13.4142L10.5858 20.1716C11.3668 20.9526 12.6332 20.9526 13.4142 20.1716L20.1716 13.4142C20.9526 12.6332 20.9526 11.3668 20.1716 10.5858L13.4142 3.82843ZM9.17157 2.41421C10.7337 0.852115 13.2663 0.852119 14.8284 2.41422L21.5858 9.17157C23.1479 10.7337 23.1479 13.2663 21.5858 14.8284L14.8284 21.5858C13.2663 23.1479 10.7337 23.1479 9.17157 21.5858L2.41421 14.8284C0.852115 13.2663 0.852119 10.7337 2.41422 9.17157L9.17157 2.41421Z" fill="#ffffff"></path>
  </symbol>
  <symbol version="1.1" xmlns="http://www.w3.org/2000/svg" xmlns:xlink="http://www.w3.org/1999/xlink" viewBox="0 0 20 20" id="github">
    <g id="Page-1" stroke="none" stroke-width="1" fill="none" fill-rule="evenodd">
      <g id="Dribbble-Light-Preview" transform="translate(-140.000000, -7559.000000)" fill="#ffffff">
        <g id="icons" transform="translate(56.000000, 160.000000)">
          <path d="M94,7399 C99.523,7399 104,7403.59 104,7409.253 C104,7413.782 101.138,7417.624 97.167,7418.981 C96.66,7419.082 96.48,7418.762 96.48,7418.489 C96.48,7418.151 96.492,7417.047 96.492,7415.675 C96.492,7414.719 96.172,7414.095 95.813,7413.777 C98.04,7413.523 100.38,7412.656 100.38,7408.718 C100.38,7407.598 99.992,7406.684 99.35,7405.966 C99.454,7405.707 99.797,7404.664 99.252,7403.252 C99.252,7403.252 98.414,7402.977 96.505,7404.303 C95.706,7404.076 94.85,7403.962 94,7403.958 C93.15,7403.962 92.295,7404.076 91.497,7404.303 C89.586,7402.977 88.746,7403.252 88.746,7403.252 C88.203,7404.664 88.546,7405.707 88.649,7405.966 C88.01,7406.684 87.619,7407.598 87.619,7408.718 C87.619,7412.646 89.954,7413.526 92.175,7413.785 C91.889,7414.041 91.63,7414.493 91.54,7415.156 C90.97,7415.418 89.522,7415.871 88.63,7414.304 C88.63,7414.304 88.101,7413.319 87.097,7413.247 C87.097,7413.247 86.122,7413.234 87.029,7413.87 C87.029,7413.87 87.684,7414.185 88.139,7415.37 C88.139,7415.37 88.726,7417.2 91.508,7416.58 C91.513,7417.437 91.522,7418.245 91.522,7418.489 C91.522,7418.76 91.338,7419.077 90.839,7418.982 C86.865,7417.627 84,7413.783 84,7409.253 C84,7403.59 88.478,7399 94,7399" id="github-[#142]"></path>
        </g>
      </g>
    </g>
  </symbol>
  <symbol fill="#ffffff" version="1.1" xmlns="http://www.w3.org/2000/svg" xmlns:xlink="http://www.w3.org/1999/xlink" enable-background="new 0 0 512 512" xml:space="preserve" viewBox="0 0 512 512" id="html5">
    <g id="c133de6af664cd4f011a55de6b0011b2">
      <path display="inline" d="M30.713,0.501L71.717,460.42l184.006,51.078l184.515-51.15L481.287,0.501H30.713z M395.754,109.646
		l-2.567,28.596l-1.128,12.681h-0.187H256h-0.197h-79.599l5.155,57.761h74.444H256h115.723h15.201l-1.377,15.146l-13.255,148.506
		l-0.849,9.523L256,413.854v0.012l-0.259,0.072l-115.547-32.078l-7.903-88.566h26.098h30.526l4.016,44.986l62.82,16.965l0.052-0.014
		v-0.006l62.916-16.977l6.542-73.158H256h-0.197H129.771l-13.863-155.444l-1.351-15.131h141.247H256h141.104L395.754,109.646z"></path>
    </g>
  </symbol>
  <symbol fill="#ffffff" version="1.1" xmlns="http://www.w3.org/2000/svg" xmlns:xlink="http://www.w3.org/1999/xlink" enable-background="new 0 0 512 512" xml:space="preserve" viewBox="0 0 512 512" id="java">
    <g id="5151e0c8492e5103c096af88a51e8d81">
      <path display="inline" d="M193.918,208.369c-4.729-10.456-6.849-22.652-3.236-33.731c3.612-11.327,11.703-20.413,19.794-28.878
		c22.525-22.531,50.285-39.085,72.316-61.986c12.197-12.573,22.278-27.634,25.762-44.937c2.864-12.695,1.496-25.764-1.117-38.337
		c11.7,13.319,15.559,32.363,12.197,49.541c-3.608,19.292-14.316,36.344-26.886,51.031c-10.081,11.827-21.659,22.282-33.731,31.993
		c-14.065,11.327-27.88,23.524-36.716,39.457c-7.472,12.943-9.215,28.876-4.11,42.942c8.341,24.146,27.756,42.071,38.338,64.848
		c-11.703-10.332-23.152-21.036-33.86-32.361C211.471,236.001,200.889,223.307,193.918,208.369z M257.398,189.448
		c-2.115,19.792,8.213,38.462,20.539,53.151c5.972,6.596,11.076,14.687,11.323,23.899c0.251,12.318-6.716,23.774-15.684,31.861
		c2.119-0.246,3.612-2.115,5.355-3.11c13.443-8.589,26.385-19.418,32.982-34.227c4.357-10.083,3.362-22.034-2.362-31.371
		c-6.724-10.953-15.559-20.662-20.786-32.61c-2.867-6.721-3.862-14.562-1.496-21.657c3.114-9.583,9.834-17.426,16.93-24.272
		c19.54-18.544,43.189-31.743,65.844-46.179c-28.629,8.214-56.883,19.542-81.03,37.343
		C273.702,153.727,259.515,169.658,257.398,189.448z M393.447,283.052c13.568,0.748,26.882,10.704,29.374,24.397
		c2.366,11.825-3.358,23.524-10.705,32.485c-12.075,14.438-28.382,24.771-44.807,33.609c-1.622,0.991-2.99,2.237-4.235,3.608
		c21.659-5.478,43.314-13.689,60.867-27.756c9.705-8.091,18.294-18.799,20.163-31.619c1.743-11.076-2.86-22.528-11.077-29.871
		c-9.96-9.09-24.021-12.448-37.218-10.704c-7.593,0.995-15.931,2.613-21.158,8.961C380.877,284.921,386.971,282.429,393.447,283.052
		z M123.22,318.647c16.303,4.357,33.108,5.603,49.787,6.724c14.936,0.995,29.875,1.246,44.937,1.12
		c38.833-0.619,77.916-3.236,116.003-11.699c3.608-0.87,7.593-1.493,10.833-3.733c6.347-4.11,13.313-7.347,20.162-10.583
		c-30.995,4.979-62.113,9.215-93.478,11.205c-31.74,1.991-63.731,3.236-95.593,1.121c-9.086-0.87-18.423-1.371-26.886-4.858
		c-1.994-0.87-4.733-2.609-3.738-5.227c1.869-3.361,5.603-4.977,8.839-6.72c13.694-6.473,28.629-10.081,43.193-14.313
		c-25.021-0.376-49.916,5.971-72.814,15.806c-5.105,2.491-10.83,4.481-14.936,8.714c-1.622,1.739-1.622,4.732,0.247,6.222
		C113.511,315.787,118.487,317.28,123.22,318.647z M324.864,352.88c-21.784,3.859-43.694,7.472-65.726,8.589
		c-24.147,1.618-48.294,0.247-72.191-2.241c-4.604-0.623-9.211-1.368-13.317-3.483c-2.116-1.246-4.231-3.236-4.106-5.854
		c0.247-4.106,3.73-6.967,6.222-9.956c-7.715,2.739-15.434,5.599-21.906,10.708c-2.742,2.116-5.478,5.474-4.733,9.208
		c1.125,4.356,5.356,6.97,9.09,8.96c9.208,4.733,19.54,6.846,29.625,8.714c25.511,4.11,51.527,4.235,77.167,2.488
		c27.141-2.115,54.148-6.594,80.411-14.313C337.932,362.342,330.836,358.479,324.864,352.88z M188.068,395.951
		c-6.97,1.99-14.066,4.357-19.79,8.957c-2.868,2.241-5.105,6.104-3.734,9.713c1.743,4.604,6.1,7.347,10.203,9.705
		c10.708,5.854,22.78,8.589,34.604,10.708c26.765,4.229,54.27,3.608,80.908-1.12c15.806-2.989,31.615-7.221,46.301-13.815
		c-9.584-3.984-18.917-8.467-27.878-13.693c-15.559,2.738-31.246,5.603-47.178,6.598c-21.032,1.618-42.319-0.125-63.355-2.738
		c-4.98-1.121-11.202-1.618-14.563-5.976C181.847,400.677,185.828,398.063,188.068,395.951z M358.345,475.982
		c17.424-3.604,34.977-7.719,50.908-15.806c4.976-2.867,11.076-5.979,12.698-11.95c0.87-5.725-5.105-8.714-9.337-11.08
		c2.613,2.993,4.356,7.347,1.74,10.83c-4.357,5.853-11.821,8.091-18.42,10.332c-20.66,5.85-42.072,8.216-63.355,10.582
		c-56.385,5.102-113.146,6.348-169.528,1.618c-18.92-1.994-38.217-4.109-56.264-10.829c-2.86-1.246-7.217-2.492-7.217-6.352
		c1.117-3.354,4.357-5.227,7.217-6.845c12.945-6.595,27.384-10.207,41.822-11.077c-4.228-2.491-9.208-2.738-14.062-2.613
		c-12.076,0.373-23.9,3.483-35.349,7.347c-9.834,3.604-19.916,7.59-27.76,14.811c-3.111,2.735-5.971,7.962-2.739,11.699
		c4.98,5.353,12.699,6.72,19.54,8.338c38.338,6.599,77.171,10.328,116.011,11.699C255.781,488.184,307.684,485.942,358.345,475.982z
		 M409.378,482.706c-23.402,7.468-47.672,11.574-71.822,14.936c-41.696,5.227-83.769,6.845-125.716,5.603
		c-25.515-0.995-51.03-2.738-76.176-6.974c5.85,3.984,13.071,5.227,19.794,7.096c28.257,5.976,57.255,7.096,86.01,7.966
		c42.19,0.748,84.387-0.87,125.962-7.468c19.669-3.48,39.459-7.715,57.13-16.927c9.215-4.854,18.552-12.326,20.163-23.152
		C435.391,473.741,421.951,478.349,409.378,482.706z"></path>
    </g>
  </symbol>
  <symbol version="1.1" xmlns="http://www.w3.org/2000/svg" xmlns:xlink="http://www.w3.org/1999/xlink" viewBox="0 0 20 20" id="javascript">
    <g id="Page-1" stroke="none" stroke-width="1" fill="none" fill-rule="evenodd">
      <g id="Dribbble-Light-Preview" transform="translate(-420.000000, -7479.000000)" fill="#ffffff">
        <g id="icons" transform="translate(56.000000, 160.000000)">
          <path d="M379.328,7337.432 C377.583,7337.432 376.455,7336.6 375.905,7335.512 L375.905,7335.512 L377.435,7334.626 C377.838,7335.284 378.361,7335.767 379.288,7335.767 C380.066,7335.767 380.563,7335.378 380.563,7334.841 C380.563,7334.033 379.485,7333.717 378.724,7333.391 C377.368,7332.814 376.468,7332.089 376.468,7330.558 C376.468,7329.149 377.542,7328.075 379.221,7328.075 C380.415,7328.075 381.275,7328.491 381.892,7329.578 L380.429,7330.518 C380.107,7329.941 379.758,7329.713 379.221,7329.713 C378.67,7329.713 378.321,7330.062 378.321,7330.518 C378.321,7331.082 378.67,7331.31 379.476,7331.659 C381.165,7332.383 382.443,7332.952 382.443,7334.814 C382.443,7336.506 381.114,7337.432 379.328,7337.432 L379.328,7337.432 Z M375,7334.599 C375,7336.546 373.801,7337.575 372.136,7337.575 C370.632,7337.575 369.731,7337 369.288,7336 L369.273,7336 L369.266,7336 L369.262,7336 L370.791,7334.931 C371.086,7335.454 371.352,7335.825 371.996,7335.825 C372.614,7335.825 373,7335.512 373,7334.573 L373,7328 L375,7328 L375,7334.599 Z M364,7339 L384,7339 L384,7319 L364,7319 L364,7339 Z" id="javascript-[#155]"></path>
        </g>
      </g>
    </g>
  </symbol>
  <symbol fill="#fff" version="1.1" xmlns="http://www.w3.org/2000/svg" viewBox="0 0 32 32" id="linux">
    <path d="M14.923 8.080c-0.025 0.072-0.141 0.061-0.207 0.082-0.059 0.031-0.107 0.085-0.175 0.085-0.062 0-0.162-0.025-0.17-0.085-0.012-0.082 0.11-0.166 0.187-0.166 0.050-0.024 0.108-0.037 0.169-0.037 0.056 0 0.109 0.011 0.157 0.032l-0.003-0.001c0.022 0.009 0.038 0.030 0.038 0.055 0 0.003-0 0.005-0.001 0.008l0-0v0.025h0.004zM15.611 8.080v-0.027c-0.008-0.025 0.016-0.052 0.036-0.062 0.046-0.020 0.1-0.032 0.157-0.032 0.061 0 0.119 0.014 0.17 0.038l-0.002-0.001c0.079 0 0.2 0.084 0.187 0.169-0.007 0.061-0.106 0.082-0.169 0.082-0.069 0-0.115-0.054-0.176-0.085-0.065-0.023-0.182-0.010-0.204-0.081zM16.963 10.058c-0.532 0.337-1.161 0.574-1.835 0.666l-0.024 0.003c-0.606-0.035-1.157-0.248-1.607-0.588l0.007 0.005c-0.192-0.167-0.35-0.335-0.466-0.419-0.205-0.167-0.18-0.416-0.092-0.416 0.136 0.020 0.161 0.167 0.249 0.25 0.12 0.082 0.269 0.25 0.45 0.416 0.397 0.328 0.899 0.541 1.45 0.583l0.009 0.001c0.654-0.057 1.249-0.267 1.763-0.592l-0.016 0.010c0.244-0.169 0.556-0.417 0.81-0.584 0.195-0.17 0.186-0.334 0.349-0.334 0.16 0.020 0.043 0.167-0.184 0.415-0.246 0.188-0.527 0.381-0.818 0.56l-0.044 0.025zM8.017 21.397h0.012c0.069 0 0.137 0.007 0.203 0.019l-0.007-0.001c0.544 0.14 0.992 0.478 1.273 0.931l0.005 0.009 1.137 2.079 0.004 0.004c0.457 0.773 0.948 1.442 1.497 2.059l-0.011-0.013c0.49 0.52 0.82 1.196 0.909 1.946l0.002 0.016v0.008c-0.012 0.817-0.613 1.491-1.396 1.616l-0.009 0.001c-0.2 0.031-0.432 0.048-0.667 0.048-0.857 0-1.659-0.233-2.347-0.64l0.021 0.012c-1.053-0.441-2.275-0.714-3.555-0.752l-0.015-0c-0.372-0.025-0.696-0.215-0.901-0.496l-0.002-0.003c-0.054-0.174-0.085-0.374-0.085-0.582 0-0.35 0.088-0.679 0.244-0.966l-0.005 0.011v-0.005l0.003-0.004c0.041-0.188 0.065-0.405 0.065-0.627 0-0.274-0.036-0.539-0.104-0.791l0.005 0.021c-0.041-0.15-0.065-0.323-0.065-0.502 0-0.242 0.043-0.473 0.123-0.687l-0.004 0.014c0.2-0.417 0.495-0.5 0.862-0.666 0.438-0.133 0.819-0.334 1.151-0.593l-0.008 0.006h0.002v-0.003c0.32-0.335 0.556-0.751 0.835-1.047 0.195-0.249 0.492-0.41 0.827-0.42l0.002-0zM21.531 21.336c-0.001 0.017-0.001 0.038-0.001 0.059 0 0.743 0.449 1.381 1.091 1.658l0.012 0.005c0.048 0.003 0.104 0.005 0.16 0.005 0.831 0 1.575-0.371 2.075-0.957l0.003-0.004 0.264-0.012c0.053-0.008 0.114-0.012 0.176-0.012 0.341 0 0.652 0.132 0.883 0.348l-0.001-0.001 0.004 0.004c0.249 0.301 0.422 0.673 0.487 1.082l0.002 0.013c0.055 0.505 0.238 0.96 0.517 1.34l-0.005-0.008c0.416 0.356 0.705 0.85 0.793 1.411l0.002 0.013 0.004-0.009v0.022l-0.004-0.015c-0.019 0.327-0.231 0.495-0.622 0.744-1.184 0.497-2.201 1.158-3.077 1.968l0.007-0.006c-0.608 0.792-1.501 1.339-2.523 1.486l-0.021 0.002c-0.074 0.010-0.16 0.016-0.247 0.016-0.768 0-1.428-0.464-1.716-1.126l-0.005-0.012-0.006-0.004c-0.093-0.286-0.146-0.615-0.146-0.956 0-0.416 0.079-0.813 0.224-1.178l-0.008 0.022c0.234-0.668 0.435-1.466 0.568-2.288l0.011-0.083c0.016-0.812 0.104-1.593 0.258-2.35l-0.014 0.083c0.085-0.518 0.381-0.954 0.794-1.225l0.007-0.004 0.056-0.027zM18.8 10.142c0.6 2.147 1.339 4.002 2.247 5.757l-0.079-0.167c0.613 1.090 1.090 2.355 1.363 3.695l0.014 0.084c0.009-0 0.020-0 0.031-0 0.217 0 0.427 0.029 0.627 0.084l-0.017-0.004c0.11-0.395 0.173-0.848 0.173-1.316 0-1.426-0.587-2.716-1.533-3.639l-0.001-0.001c-0.275-0.25-0.29-0.419-0.154-0.419 0.971 0.91 1.689 2.078 2.045 3.394l0.012 0.051c0.089 0.329 0.14 0.707 0.14 1.097 0 0.351-0.041 0.693-0.119 1.020l0.006-0.030c0.074 0.038 0.16 0.067 0.251 0.083l0.006 0.001c1.29 0.667 1.766 1.172 1.537 1.921v-0.054c-0.075-0.004-0.15 0-0.225 0h-0.020c0.189-0.584-0.227-1.031-1.331-1.53-1.143-0.5-2.057-0.42-2.212 0.581-0.011 0.049-0.019 0.106-0.022 0.165l-0 0.003c-0.073 0.030-0.16 0.058-0.25 0.078l-0.011 0.002c-0.508 0.336-0.87 0.859-0.989 1.469l-0.002 0.014c-0.148 0.695-0.241 1.5-0.256 2.323l-0 0.012v0.004c-0.091 0.637-0.23 1.207-0.418 1.753l0.020-0.066c-0.983 0.804-2.251 1.29-3.634 1.29-1.13 0-2.184-0.325-3.073-0.887l0.024 0.014c-0.146-0.253-0.313-0.472-0.503-0.667l0.001 0.001c-0.097-0.16-0.211-0.297-0.342-0.415l-0.002-0.001c0.207-0 0.407-0.031 0.596-0.088l-0.015 0.004c0.18-0.085 0.318-0.232 0.391-0.412l0.002-0.005c0.018-0.093 0.029-0.199 0.029-0.308 0-0.445-0.175-0.848-0.461-1.146l0.001 0.001c-0.619-0.761-1.359-1.395-2.196-1.88l-0.038-0.020c-0.671-0.388-1.179-0.995-1.43-1.722l-0.007-0.022c-0.093-0.318-0.147-0.684-0.147-1.062 0-0.353 0.047-0.695 0.134-1.021l-0.006 0.027c0.377-1.314 0.921-2.461 1.62-3.496l-0.028 0.043c0.134-0.081 0.046 0.169-0.51 1.217-0.474 0.713-0.757 1.59-0.757 2.533 0 0.84 0.224 1.627 0.616 2.306l-0.012-0.022c0.052-1.309 0.345-2.537 0.834-3.659l-0.025 0.065c1.055-1.902 1.854-4.111 2.275-6.452l0.020-0.131c0.060 0.045 0.271 0.169 0.361 0.252 0.272 0.166 0.475 0.416 0.737 0.581 0.267 0.26 0.633 0.42 1.035 0.42 0.021 0 0.042-0 0.063-0.001l-0.003 0c0.049 0.004 0.094 0.008 0.137 0.008 0.459-0.009 0.887-0.132 1.259-0.342l-0.013 0.007c0.362-0.167 0.65-0.417 0.925-0.5h0.006c0.535-0.145 0.983-0.454 1.3-0.869l0.004-0.006zM15.301 7.465c0.003 0 0.006-0 0.009-0 0.569 0 1.094 0.187 1.517 0.503l-0.007-0.005c0.378 0.234 0.814 0.433 1.275 0.574l0.040 0.010h0.004c0.246 0.11 0.449 0.281 0.594 0.494l0.003 0.005v-0.164c0.046 0.092 0.074 0.201 0.074 0.316 0 0.098-0.020 0.191-0.055 0.276l0.002-0.005c-0.288 0.507-0.755 0.884-1.313 1.048l-0.016 0.004v0.002c-0.335 0.169-0.626 0.416-0.968 0.581-0.35 0.21-0.771 0.334-1.222 0.334-0.015 0-0.030-0-0.045-0l0.002 0c-0.022 0.001-0.048 0.002-0.074 0.002-0.174 0-0.342-0.031-0.496-0.089l0.010 0.003c-0.159-0.087-0.29-0.169-0.417-0.257l0.014 0.010c-0.227-0.199-0.477-0.39-0.739-0.565l-0.026-0.016v-0.006h-0.006c-0.375-0.199-0.67-0.504-0.852-0.876l-0.005-0.012c-0.027-0.067-0.042-0.145-0.042-0.226 0-0.218 0.112-0.41 0.281-0.522l0.002-0.001c0.28-0.169 0.475-0.339 0.604-0.42 0.13-0.092 0.179-0.127 0.22-0.164h0.002v-0.004c0.268-0.339 0.623-0.599 1.032-0.746l0.016-0.005c0.174-0.050 0.374-0.079 0.581-0.081h0.001zM13.589 5.333h0.045c0.188 0.004 0.361 0.067 0.501 0.17l-0.002-0.002c0.179 0.159 0.325 0.352 0.425 0.57l0.004 0.011c0.113 0.245 0.183 0.53 0.191 0.83l0 0.003v0.005c0.004 0.046 0.006 0.099 0.006 0.152 0 0.063-0.003 0.126-0.009 0.188l0.001-0.008v0.1c-0.037 0.009-0.070 0.022-0.104 0.030-0.191 0.079-0.352 0.163-0.505 0.258l0.014-0.008c0.008-0.055 0.012-0.118 0.012-0.182 0-0.053-0.003-0.106-0.009-0.158l0.001 0.006v-0.019c-0.018-0.154-0.054-0.295-0.107-0.428l0.004 0.011c-0.041-0.132-0.113-0.244-0.207-0.333l-0-0c-0.055-0.050-0.128-0.081-0.209-0.081-0.007 0-0.014 0-0.021 0.001l0.001-0h-0.026c-0.103 0.011-0.189 0.075-0.232 0.163l-0.001 0.002c-0.077 0.093-0.13 0.208-0.15 0.334l-0 0.004c-0.023 0.086-0.035 0.185-0.035 0.287 0 0.044 0.002 0.088 0.007 0.131l-0-0.005v0.019c0.016 0.154 0.052 0.296 0.104 0.428l-0.004-0.011c0.042 0.132 0.113 0.245 0.207 0.335l0 0c0.012 0.012 0.026 0.022 0.042 0.030l0.001 0c-0.083 0.053-0.155 0.109-0.221 0.171l0.001-0.001c-0.045 0.040-0.1 0.070-0.161 0.084l-0.003 0.001c-0.123-0.147-0.237-0.312-0.335-0.486l-0.008-0.016c-0.113-0.245-0.183-0.529-0.194-0.83l-0-0.004c-0.004-0.048-0.006-0.104-0.006-0.161 0-0.241 0.039-0.473 0.11-0.69l-0.004 0.016c0.074-0.258 0.195-0.481 0.356-0.671l-0.002 0.003c0.127-0.15 0.313-0.245 0.522-0.25h0.001zM17.291 5.259h0.016c0.001 0 0.002 0 0.004 0 0.275 0 0.527 0.093 0.729 0.249l-0.003-0.002c0.229 0.177 0.413 0.4 0.542 0.655l0.005 0.011c0.121 0.266 0.196 0.575 0.207 0.901l0 0.004c0-0.025 0.007-0.050 0.007-0.075v0.131l-0.005-0.026-0.005-0.030c-0.003 0.32-0.071 0.622-0.193 0.897l0.006-0.014c-0.062 0.163-0.152 0.303-0.266 0.419l0-0c-0.030-0.018-0.067-0.035-0.104-0.050l-0.006-0.002c-0.135-0.042-0.253-0.099-0.36-0.169l0.005 0.003c-0.077-0.032-0.169-0.060-0.264-0.081l-0.011-0.002c0.081-0.076 0.156-0.157 0.225-0.243l0.004-0.005c0.063-0.148 0.102-0.319 0.11-0.499l0-0.003v-0.025c0-0.008 0-0.016 0-0.025 0-0.17-0.028-0.333-0.080-0.485l0.003 0.011c-0.063-0.159-0.14-0.296-0.232-0.421l0.004 0.005c-0.087-0.088-0.202-0.148-0.331-0.165l-0.003-0h-0.020c-0.001 0-0.003-0-0.004-0-0.132 0-0.25 0.065-0.322 0.164l-0.001 0.001c-0.116 0.113-0.204 0.253-0.254 0.41l-0.002 0.007c-0.063 0.147-0.104 0.318-0.112 0.496l-0 0.003v0.024c0.002 0.12 0.011 0.236 0.027 0.349l-0.002-0.015c-0.241-0.084-0.547-0.169-0.759-0.252-0.012-0.073-0.020-0.159-0.022-0.247l-0-0.003v-0.025c-0.001-0.020-0.001-0.043-0.001-0.066 0-0.324 0.069-0.631 0.194-0.908l-0.006 0.014c0.106-0.279 0.293-0.508 0.532-0.663l0.005-0.003c0.204-0.156 0.462-0.25 0.742-0.25h0zM16.63 1.004c-0.194 0-0.394 0.010-0.6 0.026-5.281 0.416-3.88 6.007-3.961 7.87-0.050 1.426-0.534 2.729-1.325 3.792l0.013-0.018c-1.407 1.602-2.555 3.474-3.351 5.523l-0.043 0.127c-0.258 0.685-0.408 1.476-0.408 2.302 0 0.285 0.018 0.566 0.052 0.841l-0.003-0.033c-0.056 0.046-0.103 0.102-0.136 0.166l-0.001 0.003c-0.325 0.335-0.562 0.75-0.829 1.048-0.283 0.217-0.615 0.388-0.975 0.494l-0.021 0.005c-0.464 0.139-0.842 0.442-1.075 0.841l-0.005 0.009c-0.104 0.212-0.165 0.461-0.165 0.725 0 0.010 0 0.019 0 0.029l-0-0.001c0.002 0.238 0.026 0.469 0.073 0.693l-0.004-0.023c0.056 0.219 0.088 0.471 0.088 0.73 0 0.17-0.014 0.337-0.041 0.5l0.002-0.018c-0.167 0.313-0.264 0.685-0.264 1.080 0 0.278 0.048 0.544 0.137 0.791l-0.005-0.016c0.273 0.388 0.686 0.662 1.164 0.749l0.011 0.002c1.274 0.107 2.451 0.373 3.561 0.78l-0.094-0.030c0.698 0.415 1.539 0.66 2.436 0.66 0.294 0 0.582-0.026 0.862-0.077l-0.029 0.004c0.667-0.151 1.211-0.586 1.504-1.169l0.006-0.013c0.734-0.004 1.537-0.336 2.824-0.417 0.873-0.072 1.967 0.334 3.22 0.25 0.037 0.159 0.086 0.298 0.148 0.429l-0.006-0.013 0.004 0.004c0.384 0.804 1.19 1.35 2.124 1.35 0.081 0 0.161-0.004 0.24-0.012l-0.010 0.001c1.151-0.17 2.139-0.768 2.813-1.623l0.007-0.009c0.843-0.768 1.827-1.401 2.905-1.853l0.067-0.025c0.432-0.191 0.742-0.585 0.81-1.059l0.001-0.007c-0.059-0.694-0.392-1.299-0.888-1.716l-0.004-0.003v-0.121l-0.004-0.004c-0.214-0.33-0.364-0.722-0.421-1.142l-0.002-0.015c-0.053-0.513-0.278-0.966-0.615-1.307l0 0h-0.004c-0.074-0.067-0.154-0.084-0.235-0.169-0.066-0.047-0.148-0.076-0.237-0.080l-0.001-0c0.195-0.602 0.308-1.294 0.308-2.013 0-0.94-0.193-1.835-0.541-2.647l0.017 0.044c-0.704-1.672-1.619-3.111-2.732-4.369l0.014 0.017c-1.105-1.082-1.828-2.551-1.948-4.187l-0.001-0.021c0.033-2.689 0.295-7.664-4.429-7.671z"></path>
  </symbol>
  <symbol fill="none" xmlns="http://www.w3.org/2000/svg" viewBox="0 0 16 16" id="nginx">
    <path fill="#ffffff" fill-rule="nonzero" clip-rule="nonzero" d="M7.62016 0.102166C7.85488 -0.0340553 8.14512 -0.0340553 8.37984 0.102166L14.626 3.72717C14.8576 3.86157 15 4.10825 15 4.375V11.625C15 11.8918 14.8576 12.1384 14.626 12.2728L8.37984 15.8978C8.14512 16.0341 7.85488 16.0341 7.62016 15.8978L1.374 12.2728C1.14241 12.1384 1 11.8918 1 11.625V4.375C1 4.10825 1.14241 3.86157 1.374 3.72717L7.62016 0.102166ZM2.50769 4.80578V11.1942L8 14.3817L13.4923 11.1942V4.80578L8 1.61828L2.50769 4.80578ZM4.98331 4.55709C5.265 4.441 5.58925 4.50517 5.80484 4.71967L10.0462 8.93934V5.25C10.0462 4.83579 10.3837 4.5 10.8 4.5C11.2163 4.5 11.5538 4.83579 11.5538 5.25V10.75C11.5538 11.0533 11.3702 11.3268 11.0885 11.4429C10.8068 11.559 10.4825 11.4948 10.2669 11.2803L6.02564 7.06066V10.75C6.02564 11.1642 5.68813 11.5 5.27179 11.5C4.85546 11.5 4.51795 11.1642 4.51795 10.75V5.25C4.51795 4.94665 4.70162 4.67318 4.98331 4.55709Z"></path>
  </symbol>
  <symbol xmlns="http://www.w3.org/2000/svg" viewBox="0 0 48 48" id="nodejs">
    <g id="Layer_2">
      <g id="invisible_box">
        <rect width="48" height="48" fill="none"></rect>
      </g>
      <g id="Q3_icons">
        <g>
          <path fill="#ffffff" d="M42.3,11.8,25.7,2.4a4,4,0,0,0-3.4,0L5.7,11.8A3.4,3.4,0,0,0,4,14.7V33.3a3.4,3.4,0,0,0,1.7,2.9l4.4,2.5a7.2,7.2,0,0,0,3.8,1c3.1,0,4.9-1.9,4.9-5.1V16.3a.5.5,0,0,0-.5-.5H16.2a.5.5,0,0,0-.5.5V34.6c0,1.5-1.5,2.9-3.9,1.7L7.2,33.7a.5.5,0,0,1-.2-.4V14.7a.8.8,0,0,1,.2-.5L23.7,4.9h.6l16.5,9.3a.8.8,0,0,1,.2.5V33.3a.5.5,0,0,1-.2.4L24.3,43a.6.6,0,0,1-.6,0l-4.2-2.4a.3.3,0,0,0-.4,0l-2.5,1.1c-.3.1-.7.2.1.7l5.6,3.1a3.1,3.1,0,0,0,3.4,0l16.6-9.3A3.4,3.4,0,0,0,44,33.3V14.7A3.4,3.4,0,0,0,42.3,11.8Z"></path>
          <path fill="#ffffff" d="M29.1,30.3c-4.4,0-5.3-1-5.7-3.1a.4.4,0,0,0-.4-.4H20.8a.4.4,0,0,0-.4.4c0,2.7,1.5,6,8.7,6,5.2,0,8.2-2,8.2-5.5s-2.4-4.5-7.5-5.1-5.6-1-5.6-2.2.4-2.2,4.2-2.2,4.7.7,5.2,2.9a.5.5,0,0,0,.5.4h2.1l.4-.2a.4.4,0,0,0,.1-.3c-.3-3.9-3-5.7-8.3-5.7s-7.5,2-7.5,5.2,2.8,4.5,7.3,5,5.9,1.2,5.9,2.3S32.6,30.3,29.1,30.3Z"></path>
        </g>
      </g>
    </g>
  </symbol>
  <symbol fill="#ffffff" version="1.1" xmlns="http://www.w3.org/2000/svg" viewBox="0 0 32 32" id="powershell">
    <path fill="#ffffff" d="M16.012 21.897c-0.004-0-0.009-0-0.014-0-0.637 0-1.153 0.516-1.153 1.154s0.516 1.154 1.153 1.154c0.005 0 0.010-0 0.015-0h5.539c0.003 0 0.007 0 0.011 0 0.637 0 1.153-0.516 1.153-1.153s-0.516-1.153-1.153-1.153c-0.004 0-0.008 0-0.011 0h0.001zM19.506 16.4c0.134-0.198 0.214-0.442 0.214-0.704 0-0.327-0.124-0.625-0.327-0.85l0.001 0.001-6.99-7.438c-0.239-0.227-0.562-0.367-0.918-0.367-0.736 0-1.333 0.597-1.333 1.333 0 0.326 0.117 0.625 0.311 0.856l-0.002-0.002 5.826 6.198v0.137l-9.272 6.716c-0.299 0.246-0.489 0.617-0.489 1.032 0 0.736 0.597 1.333 1.333 1.333 0.268 0 0.517-0.079 0.726-0.215l-0.005 0.003 10.283-7.385c0.265-0.163 0.482-0.382 0.638-0.641l0.005-0.009zM29.972 4.721c0.012-0.001 0.026-0.001 0.041-0.001 0.55 0 0.995 0.446 0.995 0.995 0 0.107-0.017 0.21-0.048 0.306l0.002-0.007-4.572 19.972c-0.187 0.724-0.817 1.256-1.577 1.293l-0.004 0h-22.781c-0.012 0.001-0.026 0.001-0.041 0.001-0.55 0-0.995-0.446-0.995-0.995 0-0.107 0.017-0.21 0.048-0.306l-0.002 0.007 4.572-19.972c0.187-0.724 0.817-1.256 1.577-1.293l0.004-0z"></path>
  </symbol>
  <symbol version="1.1" xmlns="http://www.w3.org/2000/svg" xmlns:xlink="http://www.w3.org/1999/xlink" viewBox="0 0 20 20" id="python">
    <g id="Page-1" stroke="none" stroke-width="1" fill="none" fill-rule="evenodd">
      <g id="Dribbble-Light-Preview" transform="translate(-340.000000, -7599.000000)" fill="#FFFFFF">
        <g id="icons" transform="translate(56.000000, 160.000000)">
          <path d="M296.744,7457.45798 C296.262,7457.45798 295.872,7457.06594 295.872,7456.58142 C295.872,7456.0969 296.262,7455.70587 296.744,7455.70587 C297.226,7455.70587 297.616,7456.0969 297.616,7456.58142 C297.616,7457.06594 297.226,7457.45798 296.744,7457.45798 M294.072,7459 C299.15,7459 298.833,7456.78649 298.833,7456.78649 L298.827,7454.49357 L293.982,7454.49357 L293.982,7453.80499 L300.751,7453.80499 C300.751,7453.80499 304,7454.17591 304,7449.02614 C304,7443.87636 301.165,7444.0583 301.165,7444.0583 L299.472,7444.0583 L299.472,7446.44873 C299.472,7446.44873 299.563,7449.29855 296.682,7449.29855 L291.876,7449.29855 C291.876,7449.29855 289.176,7449.25533 289.176,7451.9222 L289.176,7456.33112 C289.176,7456.33112 288.766,7459 294.072,7459 M291.257,7440.54202 C291.739,7440.54202 292.128,7440.93406 292.128,7441.41858 C292.128,7441.9031 291.739,7442.29413 291.257,7442.29413 C290.775,7442.29413 290.385,7441.9031 290.385,7441.41858 C290.385,7440.93406 290.775,7440.54202 291.257,7440.54202 M293.928,7439 C288.851,7439 289.168,7441.21351 289.168,7441.21351 L289.174,7443.50643 L294.019,7443.50643 L294.019,7444.19501 L287.249,7444.19501 C287.249,7444.19501 284,7443.82409 284,7448.97386 C284,7454.12364 286.836,7453.9417 286.836,7453.9417 L288.528,7453.9417 L288.528,7451.55127 C288.528,7451.55127 288.437,7448.70145 291.319,7448.70145 L296.124,7448.70145 C296.124,7448.70145 298.824,7448.74467 298.824,7446.0778 L298.824,7441.66888 C298.824,7441.66888 299.234,7439 293.928,7439" id="python-[#127]"></path>
        </g>
      </g>
    </g>
  </symbol>
  <symbol fill="#ffffff" xmlns="http://www.w3.org/2000/svg" xml:space="preserve" viewBox="0 0 24 24" id="tailwind">
    <path fill="#ffffff" fill-rule="evenodd" clip-rule="evenodd" d="M12 6.036c-2.667 0-4.333 1.325-5 3.976 1-1.325 2.167-1.822 3.5-1.491.761.189 1.305.738 1.906 1.345C13.387 10.855 14.522 12 17 12c2.667 0 4.333-1.325 5-3.976-1 1.325-2.166 1.822-3.5 1.491-.761-.189-1.305-.738-1.907-1.345-.98-.99-2.114-2.134-4.593-2.134zM7 12c-2.667 0-4.333 1.325-5 3.976 1-1.326 2.167-1.822 3.5-1.491.761.189 1.305.738 1.907 1.345.98.989 2.115 2.134 4.594 2.134 2.667 0 4.333-1.325 5-3.976-1 1.325-2.167 1.822-3.5 1.491-.761-.189-1.305-.738-1.906-1.345C10.613 13.145 9.478 12 7 12z"></path>
  </symbol>
  <symbol fill="none" xmlns="http://www.w3.org/2000/svg" viewBox="0 0 15 15" id="typescript">
    <path fill="#ffffff" fill-rule="evenodd" clip-rule="evenodd" d="M0 0H15V15H0V0ZM10 6C8.89543 6 8 6.89543 8 8C8 9.10457 8.89543 10 10 10H11C11.5523 10 12 10.4477 12 11C12 11.5523 11.5523 12 11 12H10C9.44772 12 9 11.5523 9 11H8C8 12.1046 8.89543 13 10 13H11C12.1046 13 13 12.1046 13 11C13 9.89543 12.1046 9 11 9H10C9.44772 9 9 8.55228 9 8C9 7.44772 9.44772 7 10 7H11.1667C11.6269 7 12 7.3731 12 7.83333V8H13V7.83333C13 6.82081 12.1792 6 11.1667 6H10ZM3 6H8V7H6V13H5V7H3V6Z"></path>
  </symbol>
  <symbol fill="#ffffff" xmlns="http://www.w3.org/2000/svg" viewBox="0 0 32 32" id="visual-studio-code">
    <path fill="#ffffff" d="M30.865 3.448l-6.583-3.167c-0.766-0.37-1.677-0.214-2.276 0.385l-12.609 11.505-5.495-4.167c-0.51-0.391-1.229-0.359-1.703 0.073l-1.76 1.604c-0.583 0.526-0.583 1.443-0.005 1.969l4.766 4.349-4.766 4.349c-0.578 0.526-0.578 1.443 0.005 1.969l1.76 1.604c0.479 0.432 1.193 0.464 1.703 0.073l5.495-4.172 12.615 11.51c0.594 0.599 1.505 0.755 2.271 0.385l6.589-3.172c0.693-0.333 1.13-1.031 1.13-1.802v-21.495c0-0.766-0.443-1.469-1.135-1.802zM24.005 23.266l-9.573-7.266 9.573-7.266z"></path>
  </symbol>
</svg>
